<svg width="545" height="275" viewBox="0 0 545 275" fill="none" xmlns="http://www.w3.org/2000/svg">
<path d="M17.873 6.5C22.1397 4.03333 24.473 2.63332 24.873 2.29999C26.2064 0.966659 27.573 1.03333 28.973 2.5C29.9064 3.43333 31.2064 3.43333 32.873 2.5C34.5397 1.63333 36.6064 1.8 39.073 3C40.6064 3.8 41.6397 4.68333 42.1731 5.64999C42.7064 6.61666 43.1397 8.43333 43.473 11.1C44.073 14.7667 44.8064 16.95 45.673 17.65C46.5397 18.35 47.9064 17.8667 49.7731 16.2C51.4397 14.4667 52.8397 13.6 53.9731 13.6C55.1064 13.6 56.6731 12.9333 58.673 11.6C61.9397 9.4 65.1397 9.41666 68.2731 11.65C71.4064 13.8833 72.9731 17.3 72.9731 21.9C72.9731 24.3667 73.3564 25.6667 74.1231 25.8C74.8897 25.9333 76.4397 25.0333 78.7731 23.1C84.9064 18.0333 89.6564 15.0667 93.0231 14.2C96.3897 13.3333 99.6731 14.2333 102.873 16.9L106.773 20.3L105.973 29.7C105.306 36.0333 103.973 41.2 101.973 45.2C99.973 49.4667 98.973 51.95 98.973 52.65C98.973 53.35 98.4397 54.8667 97.373 57.2C95.2397 61.2667 94.4064 67.1833 94.8731 74.95C95.3397 82.7167 96.8064 87 99.2731 87.8C100.94 88.1333 103.173 87.5 105.973 85.9C108.706 84.1 111.14 83.2 113.273 83.2C115.006 83.2 116.623 84 118.123 85.6C119.623 87.2 120.073 88.6333 119.473 89.9C118.873 91.3667 116.89 92.9167 113.523 94.55C110.156 96.1833 106.84 97.2333 103.573 97.7C101.306 97.9667 99.5897 97.9833 98.4231 97.75C97.2564 97.5167 95.8397 96.8 94.1731 95.6C90.6397 93 88.2897 90.1333 87.123 87C85.9564 83.8667 85.3731 79 85.3731 72.4C85.3731 64.4 85.7064 59.1 86.3731 56.5C87.7731 52.1 89.0397 47.4333 90.173 42.5C91.3064 37.5667 92.0064 33.6667 92.2731 30.8C92.6064 27.9333 92.4731 26.3333 91.8731 26C89.5397 26 84.3397 31.0333 76.273 41.1C68.2064 51.1667 63.6731 58.3 62.6731 62.5C62.2064 64.7667 60.573 69.1333 57.773 75.6C54.973 82.0667 52.1397 87.9667 49.2731 93.3C47.873 95.9 46.2064 97.4667 44.2731 98C42.3397 98.5333 40.773 97.9167 39.573 96.15C38.373 94.3833 38.1397 92 38.873 89C39.2064 86.6667 40.2064 83.8667 41.873 80.6C43.5397 77.5333 44.373 75.1667 44.373 73.5C44.373 71.8333 45.173 69.9333 46.773 67.8C48.573 65.6 49.5564 63.5 49.723 61.5C49.8897 59.5 50.6397 57.7333 51.9731 56.2C53.7064 54.3333 56.023 48.9167 58.923 39.95C61.823 30.9833 62.9064 25.8333 62.1731 24.5C61.8397 23.9667 60.0231 24.5167 56.723 26.15C53.423 27.7833 51.773 28.9833 51.773 29.75C51.773 30.5167 49.4064 34.8 44.673 42.6C40.0064 49.7333 36.7064 56.0667 34.773 61.6C32.773 66.8 30.773 70.8667 28.773 73.8C26.6397 77.1333 25.573 79.2 25.573 80C25.5064 81.3333 23.9397 84.8333 20.873 90.5C19.3397 93.3667 18.073 95.5833 17.073 97.15C16.073 98.7167 15.3397 99.6 14.873 99.8C13.673 100.4 12.6397 100.4 11.773 99.8C7.37305 96.9333 6.83971 92.5 10.173 86.5C12.1064 82.9667 13.5397 80.3333 14.473 78.6C16.4064 75.2 17.8064 72.5667 18.673 70.7C19.8064 68.3 20.8897 65.55 21.923 62.45C22.9564 59.35 23.7897 56.5333 24.423 54C25.0564 51.4667 25.8564 48.6333 26.823 45.5C27.7897 42.3667 28.8064 39.6333 29.873 37.3C31.873 32.7 33.0397 29.5167 33.373 27.75C33.7064 25.9833 33.7064 23.4333 33.373 20.1L32.473 12.9L28.073 13.2C25.273 13.6 23.2564 14.35 22.023 15.45C20.7897 16.55 20.673 17.7667 21.673 19.1C23.9397 21.7 22.4397 25.7667 17.173 31.3C11.373 37.3 6.77305 39.3 3.37305 37.3C1.57305 36.3667 0.673047 34.1333 0.673047 30.6C0.673047 27.0667 1.50638 23.3333 3.17305 19.4C4.43971 16.6 5.90638 14.4667 7.57305 13C9.23971 11.5333 12.673 9.36666 17.873 6.5ZM177.389 90.8C178.655 89.8 179.739 89.3833 180.639 89.55C181.539 89.7167 181.989 90.6 181.989 92.2C181.989 92.5333 181.922 92.8833 181.789 93.25C181.655 93.6167 181.505 93.95 181.339 94.25C181.172 94.55 180.922 94.8667 180.589 95.2C180.255 95.5333 179.955 95.8333 179.689 96.1C179.422 96.3667 179.089 96.65 178.689 96.95C178.289 97.25 177.955 97.4833 177.689 97.65C177.422 97.8167 177.089 98.0333 176.689 98.3C176.289 98.5667 175.989 98.7667 175.789 98.9C174.522 99.7667 173.189 100.5 171.789 101.1C171.655 101.167 170.855 101.567 169.389 102.3L168.889 102.9C167.089 104.633 164.489 105.7 161.089 106.1C158.955 106.367 157.305 106.383 156.139 106.15C154.972 105.917 153.355 105.333 151.289 104.4C148.222 102.933 146.189 101.733 145.189 100.8C144.522 100.267 143.955 100.033 143.489 100.1C143.022 100.167 142.155 100.7 140.889 101.7C136.822 104.633 131.972 106.283 126.339 106.65C120.705 107.017 117.022 105.9 115.289 103.3C114.222 101.633 113.739 98.4 113.839 93.6C113.939 88.8 114.555 85.3667 115.689 83.3C116.689 81.5 117.455 80.1667 117.989 79.3C118.589 78.4333 119.155 77.6333 119.689 76.9C120.222 76.1 121.122 74.9333 122.389 73.4C126.589 68.2 129.889 64.6333 132.289 62.7C134.155 61.2333 136.355 59.9833 138.889 58.95C141.422 57.9167 144.072 57.2333 146.839 56.9C149.605 56.5667 152.055 56.9333 154.189 58C156.789 59.3333 158.389 61.6167 158.989 64.85C159.589 68.0833 159.522 71.2167 158.789 74.25C158.055 77.2833 157.022 80.1333 155.689 82.8C154.555 85.3333 153.705 88.1 153.139 91.1C152.572 94.1 152.589 96.0667 153.189 97C154.455 99.5333 158.622 99.7 165.689 97.5C165.955 97.4333 166.222 97.4 166.489 97.4C166.889 97.2667 167.189 97.1333 167.389 97C171.655 94.8 174.989 92.7333 177.389 90.8ZM147.189 72C147.922 71.6 148.322 71.2667 148.389 71C148.455 70.7333 148.289 70.4 147.889 70C147.089 69.1333 145.955 68.5667 144.489 68.3C143.022 68.0333 141.589 68.1 140.189 68.5C138.789 68.8333 136.672 70.1667 133.839 72.5C131.005 74.8333 129.089 76.8333 128.089 78.5C126.755 80.4333 125.622 82.1667 124.689 83.7C123.555 85.3 122.789 87.6333 122.389 90.7C121.989 93.7667 122.155 95.7667 122.889 96.7C123.555 97.5 125.022 97.9 127.289 97.9C129.555 97.9 131.689 97.5333 133.689 96.8C135.622 95.8667 137.055 94.4667 137.989 92.6C139.589 89.4667 140.889 86.9333 141.889 85C143.622 82 144.489 79.9667 144.489 78.9C144.489 78.2333 144.772 77.55 145.339 76.85C145.905 76.15 146.055 75.4 145.789 74.6C145.455 73.5333 145.922 72.6667 147.189 72ZM230.789 90.7C232.255 89.5 233.522 89 234.589 89.2C235.655 89.4 236.222 90.4667 236.289 92.4C236.289 92.8667 236.205 93.35 236.039 93.85C235.872 94.35 235.605 94.8333 235.239 95.3C234.872 95.7667 234.522 96.1833 234.189 96.55C233.855 96.9167 233.405 97.3167 232.839 97.75C232.272 98.1833 231.805 98.5167 231.439 98.75C231.072 98.9833 230.589 99.3 229.989 99.7C229.389 100.1 228.989 100.367 228.789 100.5C227.189 101.567 225.555 102.467 223.889 103.2C222.822 103.667 221.022 104.317 218.489 105.15C215.955 105.983 212.722 106.917 208.789 107.95C204.855 108.983 201.022 109.383 197.289 109.15C193.555 108.917 190.755 107.867 188.889 106C188.155 105.267 187.322 104.2 186.389 102.8C185.455 101.4 184.639 100.033 183.939 98.7C183.239 97.3667 182.722 96.2667 182.389 95.4C181.522 93.0667 181.122 89.8333 181.189 85.7C181.789 73.1 187.189 62.3 197.389 53.3C199.789 51.3 201.555 50.0833 202.689 49.65C203.822 49.2167 205.955 49 209.089 49C214.822 49 219.205 50.2667 222.239 52.8C225.272 55.3333 226.422 58.6667 225.689 62.8C225.222 64.8667 224.772 66.15 224.339 66.65C223.905 67.15 222.922 67.5 221.389 67.7C219.322 67.9 217.372 67.4833 215.539 66.45C213.705 65.4167 212.989 64.3 213.389 63.1C213.789 62.1 213.572 61.0833 212.739 60.05C211.905 59.0167 210.889 58.5 209.689 58.5C207.489 58.5 204.139 60.8167 199.639 65.45C195.139 70.0833 192.889 73.5667 192.889 75.9C192.889 76.7667 192.422 78.0333 191.489 79.7C190.489 81.1667 190.022 83.7 190.089 87.3C190.222 90.8333 190.789 93.3333 191.789 94.8C193.389 97.2 196.072 98.85 199.839 99.75C203.605 100.65 207.055 100.8 210.189 100.2C211.855 99.9333 213.655 99.4 215.589 98.6C219.122 97.2 222.355 95.3667 225.289 93.1C227.555 91.4333 229.122 90.8 229.989 91.2C230.055 91.2 230.172 91.1333 230.339 91C230.505 90.8667 230.655 90.7667 230.789 90.7ZM296.674 86.8C298.074 85.5333 299.324 85.0167 300.424 85.25C301.524 85.4833 302.107 86.5333 302.174 88.4C302.174 88.9333 302.091 89.45 301.924 89.95C301.757 90.45 301.49 90.9167 301.124 91.35C300.757 91.7833 300.39 92.2 300.024 92.6C299.657 93 299.207 93.4 298.674 93.8C298.14 94.2 297.69 94.5333 297.324 94.8C296.957 95.0667 296.474 95.3833 295.874 95.75C295.274 96.1167 294.874 96.4 294.674 96.6C293.074 97.6667 291.44 98.5333 289.774 99.2C289.64 99.2667 289.44 99.3667 289.174 99.5C289.04 99.8333 288.774 100.1 288.374 100.3C287.974 100.5 287.374 100.7 286.574 100.9C285.04 101.767 282.774 102.367 279.774 102.7C276.774 103.033 274.04 103.117 271.574 102.95C269.107 102.783 267.507 102.5 266.774 102.1C266.174 101.7 265.507 100.867 264.774 99.6C264.04 98.3333 263.407 97.0667 262.874 95.8C262.34 94.5333 262.007 93.5667 261.874 92.9C261.407 90.9667 261.24 88.9 261.374 86.7C261.574 84.4333 261.94 80.9 262.474 76.1V74.7C262.474 74.3667 262.357 74.1167 262.124 73.95C261.89 73.7833 261.574 73.6667 261.174 73.6C260.774 73.6 260.24 73.6 259.574 73.6C258.774 73.6 257.874 73.4667 256.874 73.2C255.874 72.9333 254.89 72.6833 253.924 72.45C252.957 72.2167 252.107 72.1 251.374 72.1C251.44 72.1 251.207 73.15 250.674 75.25C250.14 77.35 249.457 79.5667 248.624 81.9C247.79 84.2333 247.04 85.6 246.374 86C243.974 87.4 241.44 88.4 238.774 89C235.307 89.8 236.874 82.2333 243.474 66.3C243.607 65.9 243.94 65.0667 244.474 63.8C245.007 62.5333 245.374 61.65 245.574 61.15C245.774 60.65 246.09 59.85 246.524 58.75C246.957 57.65 247.274 56.75 247.474 56.05C247.674 55.35 247.89 54.5 248.124 53.5C248.357 52.5 248.524 51.55 248.624 50.65C248.724 49.75 248.774 48.8333 248.774 47.9C248.774 46.8333 249.457 44.9333 250.824 42.2C252.19 39.4667 253.274 37.8 254.074 37.2C255.14 36.6 256.59 36.3833 258.424 36.55C260.257 36.7167 261.474 37.1333 262.074 37.8C262.874 38.8 262.874 42.6667 262.074 49.4C261.474 53.8 261.207 56.6333 261.274 57.9C261.34 59.2333 261.707 60.3 262.374 61.1C263.174 61.7667 263.874 62.0833 264.474 62.05C265.074 62.0167 266.207 61.5 267.874 60.5C270.34 59.1 272.124 58.4333 273.224 58.5C274.324 58.5667 275.34 59.3333 276.274 60.8C277.007 61.8667 277.34 62.8333 277.274 63.7C277.207 64.5667 276.707 66.2333 275.774 68.7C274.44 72.2333 273.24 76.2667 272.174 80.8C271.374 84.4 271.124 87.0667 271.424 88.8C271.724 90.5333 272.807 92.5667 274.674 94.9C275.474 96.0333 276.107 96.6667 276.574 96.8C276.774 96.8667 277.124 96.8167 277.624 96.65C278.124 96.4833 278.657 96.2833 279.224 96.05C279.79 95.8167 280.174 95.6667 280.374 95.6C282.44 95.0667 283.807 94.6333 284.474 94.3C289.607 91.6333 293.674 89.1333 296.674 86.8ZM354.381 83.8C355.381 84.3333 355.881 85.5 355.881 87.3C355.948 89.3667 354.781 91.3 352.381 93.1C351.514 93.7 350.514 94.3 349.381 94.9C349.181 94.9667 348.948 95.1 348.681 95.3C347.748 95.8333 346.948 96.1333 346.281 96.2C344.281 96.3333 342.348 95.5333 340.481 93.8C340.014 93.4 339.514 92.7 338.981 91.7L338.681 91.2C338.081 90.2 337.514 89.5667 336.981 89.3C336.448 89.0333 335.781 89.1 334.981 89.5C333.981 90.0333 332.848 91.6667 331.581 94.4C330.981 95.8 330.481 96.7667 330.081 97.3C328.814 99.1667 327.714 100.233 326.781 100.5C325.581 101.1 323.948 102.033 321.881 103.3C319.348 104.833 316.948 105.667 314.681 105.8C312.081 106 310.148 106.267 308.881 106.6C308.548 106.667 308.214 106.7 307.881 106.7C307.148 106.7 306.514 106.567 305.981 106.3C305.181 105.967 304.014 105.067 302.481 103.6C300.814 102.067 299.681 100.717 299.081 99.55C298.481 98.3833 297.881 96.3333 297.281 93.4C296.281 88.6 296.048 84.75 296.581 81.85C297.114 78.95 298.581 75.5667 300.981 71.7C304.048 66.7667 306.948 63.2 309.681 61C312.414 58.8 315.781 57.2333 319.781 56.3C321.714 55.9 323.414 55.2 324.881 54.2C327.214 52.6667 329.281 52.1 331.081 52.5C332.814 52.8333 334.814 54.2 337.081 56.6C338.281 57.9333 339.148 59 339.681 59.8C340.214 60.6 340.581 61.3667 340.781 62.1C340.981 62.8333 341.081 63.9 341.081 65.3C341.081 71.2333 341.281 75.8333 341.681 79.1C341.881 81.0333 342.331 82.5167 343.031 83.55C343.731 84.5833 344.948 85.8333 346.681 87.3L346.981 87.1C348.181 86.3 349.048 85.6667 349.581 85.2C351.581 83.6667 353.181 83.2 354.381 83.8ZM331.281 66.6C331.281 64 331.014 62.5667 330.481 62.3C330.348 62.4333 330.214 62.6 330.081 62.8C329.748 63.4 329.781 64.7667 330.181 66.9C330.448 68.4333 330.714 69.4 330.981 69.8C331.181 69.2667 331.281 68.2 331.281 66.6ZM328.381 82C328.648 80.4667 328.614 79.3667 328.281 78.7C328.014 78.0333 327.181 77 325.781 75.6C323.581 73.4667 322.481 71.7 322.481 70.3C322.481 69.3667 322.181 68.2667 321.581 67C320.981 65.7333 320.381 64.9 319.781 64.5C319.314 64.1667 318.914 64 318.581 64C318.314 64 318.081 64.0667 317.881 64.2C317.214 64.5333 315.848 65.7667 313.781 67.9C311.981 69.7 310.298 72 308.731 74.8C307.164 77.6 306.014 80.2333 305.281 82.7C304.548 85.0333 304.414 86.7333 304.881 87.8C305.414 88.8 305.714 90.5 305.781 92.9C305.981 94.7 306.248 96.0333 306.581 96.9C306.914 97.6333 307.414 98.1333 308.081 98.4C308.814 98.7333 310.014 98.9 311.681 98.9C312.481 98.9 313.148 98.8667 313.681 98.8C314.214 98.8 314.714 98.7333 315.181 98.6C315.648 98.4667 316.081 98.3 316.481 98.1C316.948 97.8333 317.414 97.5333 317.881 97.2C318.348 96.8667 318.914 96.4333 319.581 95.9C322.114 93.9 323.548 92.3 323.881 91.1C324.281 89.8333 325.081 88.5 326.281 87.1C327.348 85.9667 328.048 84.2667 328.381 82ZM408.975 88.5C410.442 87.3 411.725 86.8167 412.825 87.05C413.925 87.2833 414.475 88.3333 414.475 90.2C414.475 90.8 414.342 91.4 414.075 92C413.809 92.6 413.509 93.1167 413.175 93.55C412.842 93.9833 412.342 94.4833 411.675 95.05C411.009 95.6167 410.492 96.0333 410.125 96.3C409.759 96.5667 409.192 96.95 408.425 97.45C407.659 97.95 407.175 98.2667 406.975 98.4C405.442 99.4667 403.809 100.333 402.075 101C400.809 101.6 398.492 102.233 395.125 102.9C391.759 103.567 389.109 103.9 387.175 103.9C385.575 103.9 383.342 103.35 380.475 102.25C377.609 101.15 375.159 100.133 373.125 99.2C371.092 98.2667 370.075 97.9 370.075 98.1C370.075 98.1 369.842 98.1 369.375 98.1C368.909 98.1 368.392 98.0667 367.825 98C367.259 97.9333 366.442 98.25 365.375 98.95C364.309 99.65 363.209 100.733 362.075 102.2C360.409 104.267 358.909 107.083 357.575 110.65C356.242 114.217 355.309 116.467 354.775 117.4C354.109 118.733 353.425 120.267 352.725 122C352.025 123.733 351.342 125.2 350.675 126.4C350.009 127.6 349.109 128.867 347.975 130.2C346.975 131.4 346.192 132.133 345.625 132.4C345.059 132.667 344.109 132.533 342.775 132C341.175 131.4 340.025 129.85 339.325 127.35C338.625 124.85 338.509 122.667 338.975 120.8C339.242 119.667 340.025 118.15 341.325 116.25C342.625 114.35 343.442 112.967 343.775 112.1C344.175 111.033 344.609 109.433 345.075 107.3C345.542 105.167 345.942 103.667 346.275 102.8C346.742 101.4 347.609 99.4167 348.875 96.85C350.142 94.2833 351.009 92.3667 351.475 91.1C352.142 89.2333 352.625 86.9333 352.925 84.2C353.225 81.4667 353.592 78.8667 354.025 76.4C354.459 73.9333 355.242 71.7333 356.375 69.8C356.509 69.5333 356.709 69.15 356.975 68.65C357.242 68.15 357.492 67.6833 357.725 67.25C357.959 66.8167 358.242 66.3167 358.575 65.75C358.909 65.1833 359.225 64.6833 359.525 64.25C359.825 63.8167 360.159 63.3333 360.525 62.8C360.892 62.2667 361.259 61.8 361.625 61.4C361.992 61 362.375 60.6167 362.775 60.25C363.175 59.8833 363.592 59.5667 364.025 59.3C364.459 59.0333 364.875 58.8333 365.275 58.7C367.675 58.0333 369.409 58.4833 370.475 60.05C371.542 61.6167 371.475 63.3667 370.275 65.3C368.542 68.1667 368.175 69.5 369.175 69.3C370.175 68.9667 371.809 67.6667 374.075 65.4C376.742 62.7333 379.242 60.7 381.575 59.3C383.909 57.9 386.609 56.9333 389.675 56.4C392.609 55.8667 394.142 55.5 394.275 55.3C394.542 55.2333 394.809 55.4 395.075 55.8C395.342 56.2 395.609 56.7667 395.875 57.5C396.075 58.2333 396.275 59.0667 396.475 60C396.609 61 396.742 62 396.875 63C397.009 64 397.075 64.9667 397.075 65.9C397.009 75.1667 395.675 81.2 393.075 84C391.475 85.6667 390.242 87.2667 389.375 88.8C389.109 89.4 388.792 89.8 388.425 90C388.059 90.2 387.759 90.2833 387.525 90.25C387.292 90.2167 386.942 90.2667 386.475 90.4C386.009 90.5333 385.609 90.8667 385.275 91.4C384.342 92.4 383.342 92.9 382.275 92.9C381.409 92.9667 380.292 93.4167 378.925 94.25C377.559 95.0833 376.875 95.7667 376.875 96.3C376.875 96.5 377.225 96.7667 377.925 97.1C378.625 97.4333 379.475 97.75 380.475 98.05C381.475 98.35 382.509 98.6 383.575 98.8C384.642 99 385.542 99.1 386.275 99.1C387.409 99.1 388.775 98.9333 390.375 98.6C390.975 98.3333 391.709 98.05 392.575 97.75C393.442 97.45 394.242 97.1667 394.975 96.9C395.709 96.6333 396.309 96.3667 396.775 96.1C401.909 93.4333 405.975 90.9 408.975 88.5ZM369.475 84.3C369.609 85.5667 370.142 86.7833 371.075 87.95C372.009 89.1167 372.909 89.7 373.775 89.7C375.309 89.7 377.675 88.3167 380.875 85.55C384.075 82.7833 386.075 80.4667 386.875 78.6C387.742 76.4667 388.225 74.1333 388.325 71.6C388.425 69.0667 388.075 67.0667 387.275 65.6C386.475 64.2 385.692 63.6167 384.925 63.85C384.159 64.0833 382.442 65.5 379.775 68.1C377.242 70.3667 374.892 73.2333 372.725 76.7C370.559 80.1667 369.475 82.7 369.475 84.3ZM471.451 86.8C472.851 85.5333 474.101 85.0167 475.201 85.25C476.301 85.4833 476.885 86.5333 476.951 88.4C476.951 88.9333 476.868 89.45 476.701 89.95C476.535 90.45 476.268 90.9167 475.901 91.35C475.535 91.7833 475.168 92.2 474.801 92.6C474.435 93 473.985 93.4 473.451 93.8C472.918 94.2 472.468 94.5333 472.101 94.8C471.735 95.0667 471.251 95.3833 470.651 95.75C470.051 96.1167 469.651 96.4 469.451 96.6C467.851 97.6667 466.218 98.5333 464.551 99.2C464.418 99.2667 464.218 99.3667 463.951 99.5C463.818 99.8333 463.551 100.1 463.151 100.3C462.751 100.5 462.151 100.7 461.351 100.9C459.818 101.767 457.551 102.367 454.551 102.7C451.551 103.033 448.818 103.117 446.351 102.95C443.885 102.783 442.285 102.5 441.551 102.1C440.951 101.7 440.285 100.867 439.551 99.6C438.818 98.3333 438.185 97.0667 437.651 95.8C437.118 94.5333 436.785 93.5667 436.651 92.9C436.185 90.9667 436.018 88.9 436.151 86.7C436.351 84.4333 436.718 80.9 437.251 76.1V74.7C437.251 74.3667 437.135 74.1167 436.901 73.95C436.668 73.7833 436.351 73.6667 435.951 73.6C435.551 73.6 435.018 73.6 434.351 73.6C433.551 73.6 432.651 73.4667 431.651 73.2C430.651 72.9333 429.668 72.6833 428.701 72.45C427.735 72.2167 426.885 72.1 426.151 72.1C426.218 72.1 425.985 73.15 425.451 75.25C424.918 77.35 424.235 79.5667 423.401 81.9C422.568 84.2333 421.818 85.6 421.151 86C418.751 87.4 416.218 88.4 413.551 89C410.085 89.8 411.651 82.2333 418.251 66.3C418.385 65.9 418.718 65.0667 419.251 63.8C419.785 62.5333 420.151 61.65 420.351 61.15C420.551 60.65 420.868 59.85 421.301 58.75C421.735 57.65 422.051 56.75 422.251 56.05C422.451 55.35 422.668 54.5 422.901 53.5C423.135 52.5 423.301 51.55 423.401 50.65C423.501 49.75 423.551 48.8333 423.551 47.9C423.551 46.8333 424.235 44.9333 425.601 42.2C426.968 39.4667 428.051 37.8 428.851 37.2C429.918 36.6 431.368 36.3833 433.201 36.55C435.035 36.7167 436.251 37.1333 436.851 37.8C437.651 38.8 437.651 42.6667 436.851 49.4C436.251 53.8 435.985 56.6333 436.051 57.9C436.118 59.2333 436.485 60.3 437.151 61.1C437.951 61.7667 438.651 62.0833 439.251 62.05C439.851 62.0167 440.985 61.5 442.651 60.5C445.118 59.1 446.901 58.4333 448.001 58.5C449.101 58.5667 450.118 59.3333 451.051 60.8C451.785 61.8667 452.118 62.8333 452.051 63.7C451.985 64.5667 451.485 66.2333 450.551 68.7C449.218 72.2333 448.018 76.2667 446.951 80.8C446.151 84.4 445.901 87.0667 446.201 88.8C446.501 90.5333 447.585 92.5667 449.451 94.9C450.251 96.0333 450.885 96.6667 451.351 96.8C451.551 96.8667 451.901 96.8167 452.401 96.65C452.901 96.4833 453.435 96.2833 454.001 96.05C454.568 95.8167 454.951 95.6667 455.151 95.6C457.218 95.0667 458.585 94.6333 459.251 94.3C464.385 91.6333 468.451 89.1333 471.451 86.8ZM539.058 89.6C540.525 88.4 541.808 87.9 542.908 88.1C544.008 88.3 544.558 89.3667 544.558 91.3C544.558 91.9 544.425 92.5 544.158 93.1C543.892 93.7 543.592 94.2 543.258 94.6C542.925 95 542.425 95.4833 541.758 96.05C541.092 96.6167 540.575 97.0333 540.208 97.3C539.842 97.5667 539.275 97.95 538.508 98.45C537.742 98.95 537.258 99.2667 537.058 99.4C532.325 102.667 529.892 104.4 529.758 104.6C529.358 105 528.375 105.433 526.808 105.9C525.242 106.367 524.025 106.6 523.158 106.6C522.025 106.933 521.025 107.1 520.158 107.1C519.292 107.1 518.308 106.95 517.208 106.65C516.108 106.35 515.308 106.1 514.808 105.9C514.308 105.7 513.892 105.533 513.558 105.4C511.758 104.533 509.292 102.633 506.158 99.7L502.258 96L497.258 99.7C493.792 102.033 490.025 103.467 485.958 104C482.558 104.333 479.325 103.967 476.258 102.9C473.192 101.833 470.775 99.9833 469.008 97.35C467.242 94.7167 466.725 91.5667 467.458 87.9C468.258 84.0333 470.175 79.7833 473.208 75.15C476.242 70.5167 479.458 66.5667 482.858 63.3C485.458 60.8333 487.525 59.6 489.058 59.6C489.792 59.6 490.792 60.2667 492.058 61.6C492.925 62.5333 493.342 63.3 493.308 63.9C493.275 64.5 492.758 65.7333 491.758 67.6C483.558 83.6667 481.425 92.4 485.358 93.8L486.158 93.9C488.892 94.3 492.658 92.0333 497.458 87.1C502.258 82.1667 505.592 77.1667 507.458 72.1C508.858 68.7 510.558 65.6333 512.558 62.9C514.292 60.5 515.558 59.15 516.358 58.85C517.158 58.55 518.658 58.9667 520.858 60.1C522.725 61.1 523.708 62.2333 523.808 63.5C523.908 64.7667 523.225 66.8 521.758 69.6C521.025 70.7333 520.425 72 519.958 73.4C519.492 74.7333 519.125 75.9333 518.858 77C518.725 77.3333 518.558 77.95 518.358 78.85C518.158 79.75 517.958 80.5 517.758 81.1C517.358 82.7667 516.992 84.1333 516.658 85.2C515.992 88 515.658 90.65 515.658 93.15C515.658 95.65 516.058 97.3 516.858 98.1C517.525 98.7667 518.958 99.1667 521.158 99.3C521.492 99.1667 522.392 98.85 523.858 98.35C525.325 97.85 526.325 97.4667 526.858 97.2C531.992 94.5333 536.058 92 539.058 89.6ZM148.518 218.5C149.985 217.3 151.268 216.817 152.368 217.05C153.468 217.283 154.018 218.333 154.018 220.2C154.018 220.8 153.885 221.4 153.618 222C153.352 222.6 153.052 223.117 152.718 223.55C152.385 223.983 151.885 224.483 151.218 225.05C150.552 225.617 150.035 226.033 149.668 226.3C149.302 226.567 148.735 226.95 147.968 227.45C147.202 227.95 146.718 228.267 146.518 228.4C144.985 229.467 143.352 230.333 141.618 231C140.352 231.6 138.035 232.233 134.668 232.9C131.302 233.567 128.652 233.9 126.718 233.9C125.118 233.9 122.885 233.35 120.018 232.25C117.152 231.15 114.702 230.133 112.668 229.2C110.635 228.267 109.618 227.9 109.618 228.1C109.618 228.1 109.385 228.1 108.918 228.1C108.452 228.1 107.935 228.067 107.368 228C106.802 227.933 105.985 228.25 104.918 228.95C103.852 229.65 102.752 230.733 101.618 232.2C99.9517 234.267 98.4517 237.083 97.1184 240.65C95.785 244.217 94.8517 246.467 94.3184 247.4C93.6517 248.733 92.9684 250.267 92.2684 252C91.5684 253.733 90.885 255.2 90.2184 256.4C89.5517 257.6 88.6517 258.867 87.5184 260.2C86.5184 261.4 85.735 262.133 85.1684 262.4C84.6017 262.667 83.6517 262.533 82.3184 262C80.7184 261.4 79.5684 259.85 78.8684 257.35C78.1684 254.85 78.0517 252.667 78.5184 250.8C78.785 249.667 79.5684 248.15 80.8684 246.25C82.1684 244.35 82.985 242.967 83.3184 242.1C83.7184 241.033 84.1517 239.433 84.6184 237.3C85.085 235.167 85.485 233.667 85.8184 232.8C86.285 231.4 87.1517 229.417 88.4184 226.85C89.685 224.283 90.5517 222.367 91.0184 221.1C91.685 219.233 92.1684 216.933 92.4684 214.2C92.7684 211.467 93.135 208.867 93.5684 206.4C94.0017 203.933 94.785 201.733 95.9184 199.8C96.0517 199.533 96.2517 199.15 96.5184 198.65C96.785 198.15 97.035 197.683 97.2684 197.25C97.5017 196.817 97.785 196.317 98.1184 195.75C98.4517 195.183 98.7684 194.683 99.0684 194.25C99.3684 193.817 99.7017 193.333 100.068 192.8C100.435 192.267 100.802 191.8 101.168 191.4C101.535 191 101.918 190.617 102.318 190.25C102.718 189.883 103.135 189.567 103.568 189.3C104.002 189.033 104.418 188.833 104.818 188.7C107.218 188.033 108.952 188.483 110.018 190.05C111.085 191.617 111.018 193.367 109.818 195.3C108.085 198.167 107.718 199.5 108.718 199.3C109.718 198.967 111.352 197.667 113.618 195.4C116.285 192.733 118.785 190.7 121.118 189.3C123.452 187.9 126.152 186.933 129.218 186.4C132.152 185.867 133.685 185.5 133.818 185.3C134.085 185.233 134.352 185.4 134.618 185.8C134.885 186.2 135.152 186.767 135.418 187.5C135.618 188.233 135.818 189.067 136.018 190C136.152 191 136.285 192 136.418 193C136.552 194 136.618 194.967 136.618 195.9C136.552 205.167 135.218 211.2 132.618 214C131.018 215.667 129.785 217.267 128.918 218.8C128.652 219.4 128.335 219.8 127.968 220C127.602 220.2 127.302 220.283 127.068 220.25C126.835 220.217 126.485 220.267 126.018 220.4C125.552 220.533 125.152 220.867 124.818 221.4C123.885 222.4 122.885 222.9 121.818 222.9C120.952 222.967 119.835 223.417 118.468 224.25C117.102 225.083 116.418 225.767 116.418 226.3C116.418 226.5 116.768 226.767 117.468 227.1C118.168 227.433 119.018 227.75 120.018 228.05C121.018 228.35 122.052 228.6 123.118 228.8C124.185 229 125.085 229.1 125.818 229.1C126.952 229.1 128.318 228.933 129.918 228.6C130.518 228.333 131.252 228.05 132.118 227.75C132.985 227.45 133.785 227.167 134.518 226.9C135.252 226.633 135.852 226.367 136.318 226.1C141.452 223.433 145.518 220.9 148.518 218.5ZM109.018 214.3C109.152 215.567 109.685 216.783 110.618 217.95C111.552 219.117 112.452 219.7 113.318 219.7C114.852 219.7 117.218 218.317 120.418 215.55C123.618 212.783 125.618 210.467 126.418 208.6C127.285 206.467 127.768 204.133 127.868 201.6C127.968 199.067 127.618 197.067 126.818 195.6C126.018 194.2 125.235 193.617 124.468 193.85C123.702 194.083 121.985 195.5 119.318 198.1C116.785 200.367 114.435 203.233 112.268 206.7C110.102 210.167 109.018 212.7 109.018 214.3ZM210.994 216.8C212.394 215.533 213.644 215.017 214.744 215.25C215.844 215.483 216.427 216.533 216.494 218.4C216.494 218.933 216.411 219.45 216.244 219.95C216.077 220.45 215.811 220.917 215.444 221.35C215.077 221.783 214.711 222.2 214.344 222.6C213.977 223 213.527 223.4 212.994 223.8C212.461 224.2 212.011 224.533 211.644 224.8C211.277 225.067 210.794 225.383 210.194 225.75C209.594 226.117 209.194 226.4 208.994 226.6C207.394 227.667 205.761 228.533 204.094 229.2C203.961 229.267 203.761 229.367 203.494 229.5C203.361 229.833 203.094 230.1 202.694 230.3C202.294 230.5 201.694 230.7 200.894 230.9C199.361 231.767 197.094 232.367 194.094 232.7C191.094 233.033 188.361 233.117 185.894 232.95C183.427 232.783 181.827 232.5 181.094 232.1C180.494 231.7 179.827 230.867 179.094 229.6C178.361 228.333 177.727 227.067 177.194 225.8C176.661 224.533 176.327 223.567 176.194 222.9C175.727 220.967 175.561 218.9 175.694 216.7C175.894 214.433 176.261 210.9 176.794 206.1V204.7C176.794 204.367 176.677 204.117 176.444 203.95C176.211 203.783 175.894 203.667 175.494 203.6C175.094 203.6 174.561 203.6 173.894 203.6C173.094 203.6 172.194 203.467 171.194 203.2C170.194 202.933 169.211 202.683 168.244 202.45C167.277 202.217 166.427 202.1 165.694 202.1C165.761 202.1 165.527 203.15 164.994 205.25C164.461 207.35 163.777 209.567 162.944 211.9C162.111 214.233 161.361 215.6 160.694 216C158.294 217.4 155.761 218.4 153.094 219C149.627 219.8 151.194 212.233 157.794 196.3C157.927 195.9 158.261 195.067 158.794 193.8C159.327 192.533 159.694 191.65 159.894 191.15C160.094 190.65 160.411 189.85 160.844 188.75C161.277 187.65 161.594 186.75 161.794 186.05C161.994 185.35 162.211 184.5 162.444 183.5C162.677 182.5 162.844 181.55 162.944 180.65C163.044 179.75 163.094 178.833 163.094 177.9C163.094 176.833 163.777 174.933 165.144 172.2C166.511 169.467 167.594 167.8 168.394 167.2C169.461 166.6 170.911 166.383 172.744 166.55C174.577 166.717 175.794 167.133 176.394 167.8C177.194 168.8 177.194 172.667 176.394 179.4C175.794 183.8 175.527 186.633 175.594 187.9C175.661 189.233 176.027 190.3 176.694 191.1C177.494 191.767 178.194 192.083 178.794 192.05C179.394 192.017 180.527 191.5 182.194 190.5C184.661 189.1 186.444 188.433 187.544 188.5C188.644 188.567 189.661 189.333 190.594 190.8C191.327 191.867 191.661 192.833 191.594 193.7C191.527 194.567 191.027 196.233 190.094 198.7C188.761 202.233 187.561 206.267 186.494 210.8C185.694 214.4 185.444 217.067 185.744 218.8C186.044 220.533 187.127 222.567 188.994 224.9C189.794 226.033 190.427 226.667 190.894 226.8C191.094 226.867 191.444 226.817 191.944 226.65C192.444 226.483 192.977 226.283 193.544 226.05C194.111 225.817 194.494 225.667 194.694 225.6C196.761 225.067 198.127 224.633 198.794 224.3C203.927 221.633 207.994 219.133 210.994 216.8ZM268.701 213.8C269.701 214.333 270.201 215.5 270.201 217.3C270.268 219.367 269.101 221.3 266.701 223.1C265.835 223.7 264.835 224.3 263.701 224.9C263.501 224.967 263.268 225.1 263.001 225.3C262.068 225.833 261.268 226.133 260.601 226.2C258.601 226.333 256.668 225.533 254.801 223.8C254.335 223.4 253.835 222.7 253.301 221.7L253.001 221.2C252.401 220.2 251.835 219.567 251.301 219.3C250.768 219.033 250.101 219.1 249.301 219.5C248.301 220.033 247.168 221.667 245.901 224.4C245.301 225.8 244.801 226.767 244.401 227.3C243.135 229.167 242.035 230.233 241.101 230.5C239.901 231.1 238.268 232.033 236.201 233.3C233.668 234.833 231.268 235.667 229.001 235.8C226.401 236 224.468 236.267 223.201 236.6C222.868 236.667 222.535 236.7 222.201 236.7C221.468 236.7 220.835 236.567 220.301 236.3C219.501 235.967 218.335 235.067 216.801 233.6C215.135 232.067 214.001 230.717 213.401 229.55C212.801 228.383 212.201 226.333 211.601 223.4C210.601 218.6 210.368 214.75 210.901 211.85C211.435 208.95 212.901 205.567 215.301 201.7C218.368 196.767 221.268 193.2 224.001 191C226.735 188.8 230.101 187.233 234.101 186.3C236.035 185.9 237.735 185.2 239.201 184.2C241.535 182.667 243.601 182.1 245.401 182.5C247.135 182.833 249.135 184.2 251.401 186.6C252.601 187.933 253.468 189 254.001 189.8C254.535 190.6 254.901 191.367 255.101 192.1C255.301 192.833 255.401 193.9 255.401 195.3C255.401 201.233 255.601 205.833 256.001 209.1C256.201 211.033 256.651 212.517 257.351 213.55C258.051 214.583 259.268 215.833 261.001 217.3L261.301 217.1C262.501 216.3 263.368 215.667 263.901 215.2C265.901 213.667 267.501 213.2 268.701 213.8ZM245.601 196.6C245.601 194 245.335 192.567 244.801 192.3C244.668 192.433 244.535 192.6 244.401 192.8C244.068 193.4 244.101 194.767 244.501 196.9C244.768 198.433 245.035 199.4 245.301 199.8C245.501 199.267 245.601 198.2 245.601 196.6ZM242.701 212C242.968 210.467 242.935 209.367 242.601 208.7C242.335 208.033 241.501 207 240.101 205.6C237.901 203.467 236.801 201.7 236.801 200.3C236.801 199.367 236.501 198.267 235.901 197C235.301 195.733 234.701 194.9 234.101 194.5C233.635 194.167 233.235 194 232.901 194C232.635 194 232.401 194.067 232.201 194.2C231.535 194.533 230.168 195.767 228.101 197.9C226.301 199.7 224.618 202 223.051 204.8C221.485 207.6 220.335 210.233 219.601 212.7C218.868 215.033 218.735 216.733 219.201 217.8C219.735 218.8 220.035 220.5 220.101 222.9C220.301 224.7 220.568 226.033 220.901 226.9C221.235 227.633 221.735 228.133 222.401 228.4C223.135 228.733 224.335 228.9 226.001 228.9C226.801 228.9 227.468 228.867 228.001 228.8C228.535 228.8 229.035 228.733 229.501 228.6C229.968 228.467 230.401 228.3 230.801 228.1C231.268 227.833 231.735 227.533 232.201 227.2C232.668 226.867 233.235 226.433 233.901 225.9C236.435 223.9 237.868 222.3 238.201 221.1C238.601 219.833 239.401 218.5 240.601 217.1C241.668 215.967 242.368 214.267 242.701 212ZM289.996 153.4C288.996 153.4 287.362 152.533 285.096 150.8C282.829 149.067 281.696 147.8 281.696 147C281.696 146.4 283.196 146.1 286.196 146.1C288.929 146.1 291.062 146.717 292.596 147.95C294.129 149.183 294.362 150.5 293.296 151.9C292.296 152.9 291.196 153.4 289.996 153.4ZM291.396 220.1C292.862 218.9 294.146 218.417 295.246 218.65C296.346 218.883 296.929 219.933 296.996 221.8C296.996 222.4 296.846 223 296.546 223.6C296.246 224.2 295.929 224.717 295.596 225.15C295.262 225.583 294.779 226.067 294.146 226.6C293.512 227.133 293.012 227.533 292.646 227.8C292.279 228.067 291.712 228.467 290.946 229C290.179 229.533 289.696 229.833 289.496 229.9C287.896 231.033 286.262 231.933 284.596 232.6C284.396 232.667 283.512 233.133 281.946 234C280.379 234.867 278.996 235.6 277.796 236.2C276.729 237.267 275.896 238.133 275.296 238.8C272.829 241.4 270.062 244.133 266.996 247C263.862 249.867 261.696 252.967 260.496 256.3C258.896 260.5 257.629 263.417 256.696 265.05C255.762 266.683 254.196 268.533 251.996 270.6C250.262 272.4 248.879 273.517 247.846 273.95C246.812 274.383 245.096 274.6 242.696 274.6C239.296 274.6 236.412 273.783 234.046 272.15C231.679 270.517 230.496 268.467 230.496 266C230.496 264.8 230.879 263.617 231.646 262.45C232.412 261.283 233.862 259.633 235.996 257.5C237.396 256.233 239.396 254.367 241.996 251.9C249.196 244.967 253.896 240.367 256.096 238.1C258.296 235.833 259.862 234.033 260.796 232.7C261.662 231.367 262.362 229.6 262.896 227.4C262.896 227.133 262.912 226.95 262.946 226.85C262.979 226.75 263.029 226.567 263.096 226.3C263.162 226.033 263.196 225.8 263.196 225.6C263.796 223.267 264.762 219.833 266.096 215.3C267.429 210.767 268.396 207.367 268.996 205.1C269.129 204.367 269.429 202.617 269.896 199.85C270.362 197.083 270.896 194.667 271.496 192.6C272.096 190.533 272.862 189 273.796 188C274.929 186.8 275.496 185.6 275.496 184.4C275.496 183.4 275.796 182.667 276.396 182.2C277.062 181.8 278.329 179.6 280.196 175.6C282.196 171.667 284.029 168.9 285.696 167.3C287.496 165.633 289.429 164.9 291.496 165.1C292.362 165.233 292.979 165.35 293.346 165.45C293.712 165.55 294.012 165.767 294.246 166.1C294.479 166.433 294.629 166.833 294.696 167.3C294.762 167.767 294.729 168.633 294.596 169.9C294.196 174.633 292.329 180.867 288.996 188.6C288.729 189.2 287.396 191.717 284.996 196.15C282.596 200.583 281.229 203.933 280.896 206.2C280.696 207.2 279.779 209.6 278.146 213.4C276.512 217.2 275.046 220.733 273.746 224C272.446 227.267 272.029 229.1 272.496 229.5C273.362 230.3 276.212 229.35 281.046 226.65C285.879 223.95 289.329 221.767 291.396 220.1ZM242.696 266C243.962 266.2 245.929 264.317 248.596 260.35C251.262 256.383 252.262 254.067 251.596 253.4C250.796 252.667 248.662 254.2 245.196 258C241.329 262.133 239.896 264.6 240.896 265.4C241.229 265.667 241.829 265.867 242.696 266ZM340.061 221.8C341.527 220.6 342.811 220.117 343.911 220.35C345.011 220.583 345.561 221.633 345.561 223.5C345.627 224.1 345.511 224.7 345.211 225.3C344.911 225.9 344.594 226.417 344.261 226.85C343.927 227.283 343.444 227.767 342.811 228.3C342.177 228.833 341.661 229.233 341.261 229.5C340.861 229.767 340.277 230.15 339.511 230.65C338.744 231.15 338.294 231.467 338.161 231.6C336.561 232.667 334.927 233.567 333.261 234.3C333.127 234.367 332.944 234.45 332.711 234.55C332.477 234.65 332.227 234.75 331.961 234.85C331.694 234.95 331.427 235.05 331.161 235.15C330.894 235.25 330.677 235.333 330.511 235.4L330.261 235.5C326.194 237.167 321.827 238.133 317.161 238.4C312.361 238.667 308.861 238.233 306.661 237.1C306.394 236.967 305.327 236.5 303.461 235.7C301.594 234.9 300.261 234.2 299.461 233.6C297.927 232.6 296.461 230.433 295.061 227.1C292.461 221.1 291.161 215.8 291.161 211.2C291.161 208.4 291.661 204.733 292.661 200.2C292.727 199.933 292.844 199.367 293.011 198.5C293.177 197.633 293.327 196.983 293.461 196.55C293.594 196.117 293.761 195.517 293.961 194.75C294.161 193.983 294.361 193.333 294.561 192.8C294.761 192.267 294.994 191.717 295.261 191.15C295.527 190.583 295.794 190.067 296.061 189.6C297.461 187.667 298.594 186.267 299.461 185.4C303.061 181.667 307.627 180 313.161 180.4C318.894 180.867 321.994 182.767 322.461 186.1C322.861 188.7 322.711 191.383 322.011 194.15C321.311 196.917 320.444 199.2 319.411 201C318.377 202.8 316.944 205.133 315.111 208C313.277 210.867 311.961 213.067 311.161 214.6C308.227 220.133 306.761 223.433 306.761 224.5C306.761 225.367 307.594 226.6 309.261 228.2C310.327 229.2 311.277 229.8 312.111 230C312.944 230.2 314.461 230.1 316.661 229.7C320.127 229.233 323.894 228.4 327.961 227.2C329.494 226.667 331.727 225.767 334.661 224.5C337.594 223.233 339.394 222.333 340.061 221.8ZM301.261 214.7C301.861 214.7 303.527 212.1 306.261 206.9C308.927 201.7 310.261 198.567 310.261 197.5C310.261 196.233 309.577 195.417 308.211 195.05C306.844 194.683 305.761 195 304.961 196C304.294 196.8 303.627 198 302.961 199.6C302.294 201.2 301.761 202.833 301.361 204.5C301.027 206.167 300.727 207.767 300.461 209.3C300.194 210.833 300.127 212.117 300.261 213.15C300.394 214.183 300.727 214.7 301.261 214.7ZM392.98 220.7C394.447 219.5 395.713 219 396.78 219.2C397.847 219.4 398.413 220.467 398.48 222.4C398.48 222.867 398.397 223.35 398.23 223.85C398.063 224.35 397.797 224.833 397.43 225.3C397.063 225.767 396.713 226.183 396.38 226.55C396.047 226.917 395.597 227.317 395.03 227.75C394.463 228.183 393.997 228.517 393.63 228.75C393.263 228.983 392.78 229.3 392.18 229.7C391.58 230.1 391.18 230.367 390.98 230.5C389.38 231.567 387.747 232.467 386.08 233.2C385.013 233.667 383.213 234.317 380.68 235.15C378.147 235.983 374.913 236.917 370.98 237.95C367.047 238.983 363.213 239.383 359.48 239.15C355.747 238.917 352.947 237.867 351.08 236C350.347 235.267 349.513 234.2 348.58 232.8C347.647 231.4 346.83 230.033 346.13 228.7C345.43 227.367 344.913 226.267 344.58 225.4C343.713 223.067 343.313 219.833 343.38 215.7C343.98 203.1 349.38 192.3 359.58 183.3C361.98 181.3 363.747 180.083 364.88 179.65C366.013 179.217 368.147 179 371.28 179C377.013 179 381.397 180.267 384.43 182.8C387.463 185.333 388.613 188.667 387.88 192.8C387.413 194.867 386.963 196.15 386.53 196.65C386.097 197.15 385.113 197.5 383.58 197.7C381.513 197.9 379.563 197.483 377.73 196.45C375.897 195.417 375.18 194.3 375.58 193.1C375.98 192.1 375.763 191.083 374.93 190.05C374.097 189.017 373.08 188.5 371.88 188.5C369.68 188.5 366.33 190.817 361.83 195.45C357.33 200.083 355.08 203.567 355.08 205.9C355.08 206.767 354.613 208.033 353.68 209.7C352.68 211.167 352.213 213.7 352.28 217.3C352.413 220.833 352.98 223.333 353.98 224.8C355.58 227.2 358.263 228.85 362.03 229.75C365.797 230.65 369.247 230.8 372.38 230.2C374.047 229.933 375.847 229.4 377.78 228.6C381.313 227.2 384.547 225.367 387.48 223.1C389.747 221.433 391.313 220.8 392.18 221.2C392.247 221.2 392.363 221.133 392.53 221C392.697 220.867 392.847 220.767 392.98 220.7ZM445.565 220.9C447.099 219.833 448.399 219.483 449.465 219.85C450.532 220.217 450.999 221.333 450.865 223.2C450.799 223.667 450.649 224.15 450.415 224.65C450.182 225.15 449.865 225.6 449.465 226C449.065 226.4 448.682 226.767 448.315 227.1C447.949 227.433 447.465 227.783 446.865 228.15C446.265 228.517 445.765 228.8 445.365 229C444.965 229.2 444.449 229.467 443.815 229.8C443.182 230.133 442.765 230.367 442.565 230.5C440.899 231.367 439.165 232.067 437.365 232.6C437.299 232.667 436.482 233.183 434.915 234.15C433.349 235.117 431.565 236.183 429.565 237.35C427.565 238.517 425.932 239.3 424.665 239.7C422.932 240.3 421.132 240.767 419.265 241.1C417.399 241.433 415.432 241.65 413.365 241.75C411.299 241.85 409.315 241.633 407.415 241.1C405.515 240.567 403.932 239.767 402.665 238.7C401.132 237.3 399.882 235.383 398.915 232.95C397.949 230.517 397.315 227.883 397.015 225.05C396.715 222.217 396.565 219.567 396.565 217.1C396.565 214.633 396.665 212.267 396.865 210C396.932 209.667 397.315 206.817 398.015 201.45C398.715 196.083 399.382 190.817 400.015 185.65L400.965 177.9C400.165 177.433 398.665 177.1 396.465 176.9C395.132 176.833 393.765 176.833 392.365 176.9C389.099 176.9 386.799 176.8 385.465 176.6C385.199 176.533 384.815 176.5 384.315 176.5C383.815 176.5 383.315 176.5 382.815 176.5C382.315 176.5 381.815 176.5 381.315 176.5C380.815 176.5 380.415 176.45 380.115 176.35C379.815 176.25 379.632 176.1 379.565 175.9C379.432 174.833 379.865 174.067 380.865 173.6C380.932 173.533 381.382 173.25 382.215 172.75C383.049 172.25 383.915 171.767 384.815 171.3C385.715 170.833 386.932 170.417 388.465 170.05C389.999 169.683 391.565 169.533 393.165 169.6C398.165 170.067 401.282 170.217 402.515 170.05C403.749 169.883 404.965 169.167 406.165 167.9C407.965 166.233 410.365 161.867 413.365 154.8C413.499 154.533 413.699 154.133 413.965 153.6C415.099 150.933 416.032 148.833 416.765 147.3C417.499 145.767 418.532 143.817 419.865 141.45C421.199 139.083 422.665 137.1 424.265 135.5C425.865 133.9 427.532 132.667 429.265 131.8C434.865 129.133 437.665 129.3 437.665 132.3C437.665 134.033 436.365 137.933 433.765 144C433.032 145.667 432.499 146.967 432.165 147.9C431.765 149.1 431.432 150.533 431.165 152.2C430.899 153.867 430.265 155.533 429.265 157.2C427.665 160 426.332 162.367 425.265 164.3C423.999 166.567 423.532 167.9 423.865 168.3C424.199 168.833 427.565 169.433 433.965 170.1C438.432 170.567 441.149 170.967 442.115 171.3C443.082 171.633 443.499 172.267 443.365 173.2C443.232 174.467 442.499 175 441.165 174.8C440.632 174.733 439.565 174.7 437.965 174.7C436.365 174.767 434.565 174.867 432.565 175C430.565 175.133 428.499 175.333 426.365 175.6C424.299 175.867 422.565 176.067 421.165 176.2C420.432 176.333 419.465 178.467 418.265 182.6C417.065 186.733 415.749 191.75 414.315 197.65C412.882 203.55 411.832 207.5 411.165 209.5C407.765 219.7 408.199 226.7 412.465 230.5C414.399 232.233 416.199 233.067 417.865 233C418.865 233 419.965 232.633 421.165 231.9C421.365 231.633 422.049 231.233 423.215 230.7C424.382 230.167 425.582 229.683 426.815 229.25C428.049 228.817 429.315 228.367 430.615 227.9C431.915 227.433 432.599 227.2 432.665 227.2C437.999 225.067 442.299 222.967 445.565 220.9Z" fill="#272A31"/>
</svg>
